<?xml version="1.0" standalone="no"?>
<!DOCTYPE svg PUBLIC "-//W3C//DTD SVG 20010904//EN"
 "http://www.w3.org/TR/2001/REC-SVG-20010904/DTD/svg10.dtd">
<svg version="1.0" xmlns="http://www.w3.org/2000/svg"
 width="150.000000pt" height="79.000000pt" viewBox="0 0 150.000000 79.000000"
 preserveAspectRatio="xMidYMid meet">

<g transform="translate(0.000000,79.000000) scale(0.100000,-0.100000)"
fill="#000000" stroke="none">
<path d="M860 773 c-121 -12 -323 -65 -459 -120 -159 -63 -292 -157 -346 -243
-28 -45 -55 -125 -55 -164 1 -106 108 -196 273 -230 125 -26 228 -17 372 33
79 27 231 108 221 118 -2 3 -71 -12 -153 -33 -132 -35 -161 -39 -263 -38 -95
0 -125 4 -173 23 -174 68 -189 194 -43 349 128 137 345 234 630 282 66 11 122
22 124 25 6 5 -70 4 -128 -2z"/>
<path d="M932 570 c-12 -12 -23 -16 -27 -10 -3 6 -15 10 -26 10 -14 0 -19 -7
-19 -30 0 -35 17 -40 23 -7 4 20 4 21 6 1 1 -17 8 -21 36 -22 34 -1 35 -1 35
38 0 22 -1 40 -3 40 -2 0 -13 -9 -25 -20z"/>
<path d="M780 547 c0 -32 2 -34 35 -35 33 -1 35 1 35 29 0 24 -4 30 -17 27
-10 -2 -18 -8 -18 -15 0 -6 -3 -15 -7 -19 -5 -4 -8 5 -8 19 0 15 -4 27 -10 27
-5 0 -10 -15 -10 -33z"/>
<path d="M780 475 c0 -8 9 -15 20 -15 11 0 20 7 20 15 0 8 -9 15 -20 15 -11 0
-20 -7 -20 -15z"/>
<path d="M1460 470 c0 -16 -7 -20 -30 -20 -31 0 -50 -22 -50 -59 0 -32 26 -49
75 -49 l45 0 0 74 c0 67 -2 74 -20 74 -13 0 -20 -7 -20 -20z m-3 -66 c8 -21
-13 -42 -28 -27 -13 13 -5 43 11 43 6 0 13 -7 17 -16z"/>
<path d="M780 395 c0 -30 -4 -55 -10 -55 -5 0 -10 -7 -10 -16 0 -11 8 -14 28
-12 26 3 27 5 30 71 3 62 1 67 -18 67 -18 0 -20 -6 -20 -55z"/>
<path d="M852 398 l3 -53 53 -2 52 -2 0 54 c0 48 -3 55 -19 55 -16 0 -20 -8
-23 -37 -4 -52 -28 -56 -28 -4 0 35 -3 41 -21 41 -18 0 -20 -5 -17 -52z"/>
<path d="M992 438 c-17 -17 -15 -63 3 -78 8 -7 24 -10 35 -7 13 3 20 0 20 -8
0 -10 -10 -12 -35 -8 -29 5 -34 3 -29 -10 7 -21 47 -29 78 -17 24 9 26 14 26
75 l0 65 -43 0 c-24 0 -48 -5 -55 -12z m58 -38 c0 -11 -7 -20 -15 -20 -8 0
-15 9 -15 20 0 11 7 20 15 20 8 0 15 -9 15 -20z"/>
<path d="M1127 432 c-50 -55 29 -123 89 -77 18 13 17 14 -18 15 -21 0 -38 5
-38 10 0 6 16 10 35 10 39 0 46 17 19 44 -21 22 -67 20 -87 -2z m58 -12 c3 -6
-4 -10 -17 -10 -18 0 -20 2 -8 10 19 12 18 12 25 0z"/>
<path d="M1250 395 c0 -48 3 -55 19 -55 16 0 20 8 23 37 4 52 28 56 28 4 0
-35 3 -41 21 -41 18 0 20 5 17 53 l-3 52 -52 2 -53 2 0 -54z"/>
</g>
</svg>
